<svg id="Layer_1" data-name="Layer 1" xmlns="http://www.w3.org/2000/svg" viewBox="0 0 150 131.71"><defs><style>.cls-1{fill:#001e83;}</style></defs><g id="Group_54" data-name="Group 54"><path id="Path_73" data-name="Path 73" class="cls-1" d="M88.12,51.8l-9.55-7.43-4.06-3.16L51.88,23.61a2.51,2.51,0,0,0-3.07,0L12.57,51.8a2.49,2.49,0,0,0-1,2v44.3a10.57,10.57,0,0,0,10.56,10.55H78.53A10.58,10.58,0,0,0,89.08,98.07V53.77A2.48,2.48,0,0,0,88.12,51.8Zm-4,46.27a5.56,5.56,0,0,1-5.55,5.55H22.16a5.55,5.55,0,0,1-5.56-5.55V55L50.34,28.75,70.43,44.38l4.07,3.16L84.08,55Z"/><g id="Path_74" data-name="Path 74"><path id="Path_74-2" data-name="Path 74-2" class="cls-1" d="M62.42,108.62a2.5,2.5,0,0,1-2.5-2.5V68.35H40.76v37.77a2.5,2.5,0,0,1-5,0V65.85a2.5,2.5,0,0,1,2.5-2.5H62.42a2.5,2.5,0,0,1,2.5,2.5v40.27A2.5,2.5,0,0,1,62.42,108.62Z"/></g><path id="Path_75" data-name="Path 75" class="cls-1" d="M137.44,51.8,101.2,23.61a2.51,2.51,0,0,0-3.07,0L78.76,38.67l4.07,3.17L99.66,28.75,133.4,55V98.07a5.56,5.56,0,0,1-5.55,5.55H114.24V65.85a2.5,2.5,0,0,0-2.5-2.5H94.08v5h15.16v35.27H93a14.42,14.42,0,0,1-3.45,5h38.32A10.57,10.57,0,0,0,138.4,98.07V53.77A2.48,2.48,0,0,0,137.44,51.8Z"/></g></svg>