<svg id="Layer_1" data-name="Layer 1" xmlns="http://www.w3.org/2000/svg" viewBox="0 0 150 131.71"><defs><style>.cls-1{fill:#001e83;}</style></defs><path class="cls-1" d="M145.26,72.73l-.07-.09L88.82,16.27a2.74,2.74,0,0,0-3.52,0L55,46.59l-.23,0c-.73-.07-1.53-.1-2.4-.1-7.92,0-14.54,5.62-18.11,10.88l-.14.22H6.43A2.47,2.47,0,0,0,4,60V97.41a2.47,2.47,0,0,0,2.46,2.47H24.06a2.47,2.47,0,0,0,2.46-2.47V94.35h8.77a2.46,2.46,0,0,0,2.46-2.46v-1.4l.54.05c4.93.43,6.59,1.39,11,3.94a180.27,180.27,0,0,0,17.77,9.08l.12,0a24.84,24.84,0,0,0,19-.29l12.26-4.39,10.28,10.28a2.47,2.47,0,0,0,3.49,0l33-33A2.47,2.47,0,0,0,145.26,72.73ZM21.6,95H8.9V62.5H21.6Zm11.22-5.53h-6.3V62.5h6.3ZM87.07,21.5l7.56,7.57-.54.33a13.43,13.43,0,0,1-14,0l-.54-.33Zm-22,22,.33.54a13.51,13.51,0,0,1,2,6.41l0,1-.84-.6a22.63,22.63,0,0,0-5.11-2.77l-.72-.28ZM84.28,98.22l-.1,0,0,0-.12,0a19.22,19.22,0,0,1-14.76.25,173.17,173.17,0,0,1-17.22-8.79c-4.85-2.8-7.19-4.15-13.79-4.7V61.21c2.81-4.6,8.26-9.32,14.13-9.32a21.44,21.44,0,0,1,3.1.22h0a17,17,0,0,1,11,6l.36.48A2.92,2.92,0,0,0,68.47,60L92,68c3.77,1.41,5.75,4.63,4.84,7.85h0a5.78,5.78,0,0,1-7.1,4L63.22,71.38A3,3,0,0,0,61.43,77l21.13,6.7.18.18h0L93.68,94.86Zm3.19-37.54.1-.44a11.48,11.48,0,1,1,15.58,13.1l-.61.25-.08-.65c-.54-4.46-3.82-8.32-8.56-10.08Zm23,43.29-7.56-7.56.54-.34a13.39,13.39,0,0,1,14,0l.54.34Zm18.2-18.79.25.34-7.37,7.36-.34-.24a18.31,18.31,0,0,0-21.48,0l-.34.24L92,85.47l1-.14a11.27,11.27,0,0,0,8.45-6.19l.11-.23.25,0a16.41,16.41,0,1,0-18.86-20.3l-.13.52-11-3.72.09-.44A18.37,18.37,0,0,0,68.86,40.3L68.62,40,76,32.59l.34.24a18.28,18.28,0,0,0,21.48,0l.34-.24,30.77,30.77-.25.34A18.31,18.31,0,0,0,128.67,85.18ZM132.45,82l-.34-.54a13.37,13.37,0,0,1,0-14l.34-.54L140,74.44Z"/></svg>