<svg id="Layer_1" data-name="Layer 1" xmlns="http://www.w3.org/2000/svg" viewBox="0 0 150 131.71"><defs><style>.cls-1,.cls-2{fill:#001e83;stroke:#001e83;}.cls-1{stroke-width:2px;}.cls-2{stroke-width:0.5px;}</style></defs><g id="Group_57" data-name="Group 57"><g id="Group_49" data-name="Group 49"><g id="Group_42" data-name="Group 42"><g id="Group_41" data-name="Group 41"><path id="Path_69" data-name="Path 69" class="cls-1" d="M138,57.42,120.23,35.86a1.2,1.2,0,0,0-1.69-.15l-.14.15L100.64,57.42a1.19,1.19,0,0,0,.2,1.68,1.12,1.12,0,0,0,.72.26h7.69V96.22a1.19,1.19,0,0,0,1.19,1.19h17.75a1.19,1.19,0,0,0,1.19-1.19v-5a1.19,1.19,0,0,0-2.38,0V95H111.63V58.17A1.2,1.2,0,0,0,110.44,57h-6.36l15.24-18.5L134.55,57H128.2A1.19,1.19,0,0,0,127,58.17V85.6a1.19,1.19,0,0,0,1.19,1.19,1.21,1.21,0,0,0,1.19-1.19V59.36h7.68a1.2,1.2,0,0,0,.92-1.94Z"/></g></g><g id="Group_44" data-name="Group 44"><g id="Group_43" data-name="Group 43"><path id="Path_70" data-name="Path 70" class="cls-1" d="M128.19,101.37H110.44a1.19,1.19,0,1,0,0,2.38h17.76a1.19,1.19,0,0,0,0-2.38Z"/></g></g><g id="Group_46" data-name="Group 46"><g id="Group_45" data-name="Group 45"><path id="Path_71" data-name="Path 71" class="cls-1" d="M128.19,107.71H110.44a1.19,1.19,0,1,0,0,2.38h17.76a1.19,1.19,0,0,0,1.19-1.19A1.21,1.21,0,0,0,128.19,107.71Z"/></g></g><g id="Group_48" data-name="Group 48"><g id="Group_47" data-name="Group 47"><path id="Path_72" data-name="Path 72" class="cls-1" d="M128.19,114.05H110.44a1.19,1.19,0,1,0,0,2.38h17.76a1.19,1.19,0,0,0,1.19-1.19A1.21,1.21,0,0,0,128.19,114.05Z"/></g></g></g><g id="Group_34" data-name="Group 34"><g id="Group_33" data-name="Group 33"><path id="Path_50" data-name="Path 50" class="cls-2" d="M42.8,23.89H35.56a1.8,1.8,0,0,0-1.8,1.81v7.23a1.8,1.8,0,0,0,1.8,1.81H42.8a1.81,1.81,0,0,0,1.8-1.81V25.7A1.81,1.81,0,0,0,42.8,23.89ZM41,31.13H37.37V27.51H41Z"/><path id="Path_51" data-name="Path 51" class="cls-2" d="M57.26,23.89H50a1.81,1.81,0,0,0-1.81,1.81v7.23A1.81,1.81,0,0,0,50,34.74h7.23a1.81,1.81,0,0,0,1.81-1.81V25.7A1.81,1.81,0,0,0,57.26,23.89Zm-1.81,7.24H51.84V27.51h3.61Z"/><path id="Path_52" data-name="Path 52" class="cls-2" d="M71.72,23.89H64.49a1.81,1.81,0,0,0-1.81,1.81h0v7.23a1.81,1.81,0,0,0,1.81,1.81h7.23a1.81,1.81,0,0,0,1.81-1.81h0V25.7a1.81,1.81,0,0,0-1.81-1.81Zm-1.8,7.24H66.3V27.51h3.62Z"/><path id="Path_53" data-name="Path 53" class="cls-2" d="M42.8,38.36H35.56a1.8,1.8,0,0,0-1.8,1.81V47.4a1.8,1.8,0,0,0,1.8,1.81H42.8a1.81,1.81,0,0,0,1.8-1.81V40.17A1.81,1.81,0,0,0,42.8,38.36ZM41,45.59H37.37V42H41Z"/><path id="Path_54" data-name="Path 54" class="cls-2" d="M57.26,38.36H50a1.81,1.81,0,0,0-1.81,1.81V47.4A1.81,1.81,0,0,0,50,49.21h7.23a1.81,1.81,0,0,0,1.81-1.81V40.17A1.81,1.81,0,0,0,57.26,38.36Zm-1.81,7.23H51.84V42h3.61Z"/><path id="Path_55" data-name="Path 55" class="cls-2" d="M71.72,38.36H64.49a1.81,1.81,0,0,0-1.81,1.81h0V47.4a1.81,1.81,0,0,0,1.81,1.81h7.23a1.81,1.81,0,0,0,1.81-1.81h0V40.17a1.81,1.81,0,0,0-1.81-1.81Zm-1.8,7.23H66.3V42h3.62Z"/><path id="Path_56" data-name="Path 56" class="cls-2" d="M42.8,52.82H35.56a1.8,1.8,0,0,0-1.8,1.81v7.23a1.8,1.8,0,0,0,1.8,1.81H42.8a1.81,1.81,0,0,0,1.8-1.81V54.63A1.81,1.81,0,0,0,42.8,52.82ZM41,60.05H37.37V56.44H41Z"/><path id="Path_57" data-name="Path 57" class="cls-2" d="M57.26,52.82H50a1.81,1.81,0,0,0-1.81,1.81v7.23A1.81,1.81,0,0,0,50,63.67h7.23a1.81,1.81,0,0,0,1.81-1.81V54.63A1.81,1.81,0,0,0,57.26,52.82Zm-1.81,7.23H51.84V56.44h3.61Z"/><path id="Path_58" data-name="Path 58" class="cls-2" d="M71.72,52.82H64.49a1.81,1.81,0,0,0-1.81,1.81h0v7.23a1.81,1.81,0,0,0,1.81,1.81h7.23a1.81,1.81,0,0,0,1.81-1.81h0V54.63a1.81,1.81,0,0,0-1.81-1.81Zm-1.8,7.23H66.3V56.44h3.62Z"/><path id="Path_59" data-name="Path 59" class="cls-2" d="M42.8,67.29H35.56a1.8,1.8,0,0,0-1.8,1.8h0v7.24a1.79,1.79,0,0,0,1.8,1.8H42.8a1.8,1.8,0,0,0,1.8-1.8h0V69.09a1.81,1.81,0,0,0-1.8-1.8ZM41,74.52H37.37V70.9H41Z"/><path id="Path_60" data-name="Path 60" class="cls-2" d="M57.26,67.29H50a1.81,1.81,0,0,0-1.81,1.8h0v7.24A1.8,1.8,0,0,0,50,78.13h7.23a1.8,1.8,0,0,0,1.81-1.8h0V69.09a1.81,1.81,0,0,0-1.81-1.8Zm-1.81,7.23H51.84V70.9h3.61Z"/><path id="Path_61" data-name="Path 61" class="cls-2" d="M71.72,67.29H64.49a1.81,1.81,0,0,0-1.81,1.8h0v7.24a1.8,1.8,0,0,0,1.81,1.8h7.23a1.8,1.8,0,0,0,1.81-1.8h0V69.09a1.81,1.81,0,0,0-1.81-1.8Zm-1.8,7.23H66.3V70.9h3.62Z"/><path id="Path_62" data-name="Path 62" class="cls-2" d="M42.8,81.75H35.56a1.8,1.8,0,0,0-1.8,1.81h0v7.23a1.8,1.8,0,0,0,1.8,1.81H42.8a1.81,1.81,0,0,0,1.8-1.81h0V83.56a1.81,1.81,0,0,0-1.8-1.81ZM41,89H37.37V85.37H41Z"/><path id="Path_63" data-name="Path 63" class="cls-2" d="M57.26,81.75H50a1.81,1.81,0,0,0-1.81,1.81h0v7.23A1.81,1.81,0,0,0,50,92.6h7.23a1.81,1.81,0,0,0,1.81-1.81h0V83.56a1.81,1.81,0,0,0-1.81-1.81ZM55.45,89H51.84V85.37h3.61Z"/><path id="Path_64" data-name="Path 64" class="cls-2" d="M71.72,81.75H64.49a1.81,1.81,0,0,0-1.81,1.81h0v7.23a1.81,1.81,0,0,0,1.81,1.81h7.23a1.81,1.81,0,0,0,1.81-1.81h0V83.56a1.81,1.81,0,0,0-1.81-1.81ZM69.92,89H66.3V85.37h3.62Z"/><path id="Path_65" data-name="Path 65" class="cls-2" d="M80.76,114.29v-94h1.81a1.81,1.81,0,0,0,1.81-1.81V11.24a1.81,1.81,0,0,0-1.81-1.81H24.72a1.81,1.81,0,0,0-1.81,1.81v7.23a1.81,1.81,0,0,0,1.81,1.81h1.8v94H10.25v3.62H97v-3.62ZM26.52,13.05H80.76v3.61H26.52ZM44.6,114.29V99.83h7.24v14.46Zm10.85,0V99.83h7.23v14.46Zm10.85,0V98a1.81,1.81,0,0,0-1.81-1.81H42.79A1.81,1.81,0,0,0,41,98v16.27H30.14v-94h47v94Z"/></g></g></g></svg>