<svg id="Layer_1" data-name="Layer 1" xmlns="http://www.w3.org/2000/svg" viewBox="0 0 150 131.71"><defs><style>.cls-1{fill:#001e83;}</style></defs><g id="Group_58" data-name="Group 58"><g id="Path_76-2" data-name="Path 76-2"><path class="cls-1" d="M96.48,106.94H67.9a5.36,5.36,0,0,0-2.36.57,5.19,5.19,0,0,0,.57-2.35v-3.58A5.29,5.29,0,0,0,64.72,98a5.38,5.38,0,0,0,1.4-3.58V90.87a5.37,5.37,0,0,0-5.36-5.36h-1A27,27,0,0,0,69,76.77,37.48,37.48,0,1,0,56.91,37.6,26.78,26.78,0,0,0,33.15,85.51h-1a5.36,5.36,0,0,0-5.36,5.36v3.57A5.26,5.26,0,0,0,28.21,98a5.28,5.28,0,0,0-1.4,3.58v3.57a5.28,5.28,0,0,0,1.4,3.57,5.28,5.28,0,0,0-1.4,3.57v3.58a5.36,5.36,0,0,0,5.36,5.35H60.75a5.29,5.29,0,0,0,3.57-1.39,5.32,5.32,0,0,0,3.58,1.39H96.48a5.36,5.36,0,0,0,5.36-5.36v-3.56A5.38,5.38,0,0,0,96.48,106.94Zm-64.31,0a1.79,1.79,0,0,1-1.79-1.78v-3.58a1.79,1.79,0,0,1,1.79-1.78H34v3.57h3.58V99.8H41.1v3.57h3.57V99.8h3.58v3.57h3.56V99.8h3.58v3.57H59V99.8h1.79a1.79,1.79,0,0,1,1.79,1.78v3.58a1.79,1.79,0,0,1-1.79,1.78ZM92.91,14.05A33.94,33.94,0,1,1,70.72,73.58,26.66,26.66,0,0,0,60.15,39.29,33.69,33.69,0,0,1,92.91,14.05ZM23.24,62.28A23.23,23.23,0,1,1,46.46,85.51h0A23.25,23.25,0,0,1,23.24,62.28Zm7.14,28.59a1.79,1.79,0,0,1,1.79-1.79H34v3.57h3.58V89.08H41.1v3.57h3.57V89.08h3.58v3.57h3.56V89.08h3.58v3.57H59V89.08h1.79a1.79,1.79,0,0,1,1.79,1.79v3.57a1.79,1.79,0,0,1-1.79,1.79H32.17a1.79,1.79,0,0,1-1.79-1.79Zm30.37,26.79H32.17a1.79,1.79,0,0,1-1.79-1.78v-3.57a1.79,1.79,0,0,1,1.79-1.79H34v3.58h3.58v-3.58H41.1v3.57h3.57v-3.57h3.58v3.57h3.56v-3.57h3.58v3.57H59v-3.57h1.79a1.79,1.79,0,0,1,1.79,1.79h0v3.57A1.79,1.79,0,0,1,60.75,117.66Zm37.52-1.78a1.79,1.79,0,0,1-1.79,1.78H67.9a1.79,1.79,0,0,1-1.79-1.78v-3.57a1.79,1.79,0,0,1,1.79-1.79h1.78v3.58h3.58v-3.58h3.57v3.57H80.4v-3.57H84v3.57h3.57v-3.57h3.57v3.57h3.57v-3.57h1.79a1.79,1.79,0,0,1,1.79,1.79h0Z"/><path class="cls-1" d="M96.48,121.5H67.9a5.56,5.56,0,0,1-3.58-1.31,5.55,5.55,0,0,1-3.57,1.31H32.17a5.63,5.63,0,0,1-5.63-5.62V112.3a5.55,5.55,0,0,1,1.31-3.57,5.55,5.55,0,0,1-1.31-3.57v-3.57A5.56,5.56,0,0,1,27.85,98a5.55,5.55,0,0,1-1.31-3.57V90.87a5.64,5.64,0,0,1,5.62-5.63,27,27,0,0,1,24.57-48,37.63,37.63,0,0,1,36-27,1.21,1.21,0,0,0,.19,0A37.76,37.76,0,1,1,69,77.17a27.39,27.39,0,0,1-8.29,8.07h0a5.64,5.64,0,0,1,5.63,5.63v3.56A5.61,5.61,0,0,1,65.08,98a5.54,5.54,0,0,1,1.3,3.57v3.58a5.53,5.53,0,0,1-.33,1.84,5.81,5.81,0,0,1,1.85-.33H96.48a5.66,5.66,0,0,1,5.63,5.64v3.56A5.64,5.64,0,0,1,96.48,121.5Zm-32.16-2,.19.17A5,5,0,0,0,67.9,121H96.48a5.1,5.1,0,0,0,5.09-5.09v-3.56a5.11,5.11,0,0,0-5.09-5.1H67.9a5.13,5.13,0,0,0-2.24.54l-.73.37.37-.73a5,5,0,0,0,.54-2.23v-3.58a5,5,0,0,0-1.32-3.39L64.35,98l.17-.19a5,5,0,0,0,1.33-3.39V90.87a5.12,5.12,0,0,0-5.09-5.1h-2l.87-.5a26.69,26.69,0,0,0,9.1-8.64l.16-.26.24.2a37.22,37.22,0,1,0,23.8-65.83h-.19A37.09,37.09,0,0,0,57.16,37.68l-.08.29-.28-.12A26.51,26.51,0,0,0,33.28,85.27l.89.51h-2a5.09,5.09,0,0,0-5.09,5.09v3.57a5,5,0,0,0,1.32,3.39l.17.18-.17.18a5,5,0,0,0-1.32,3.4v3.57a5,5,0,0,0,1.32,3.39l.17.18-.17.18a5,5,0,0,0-1.32,3.39v3.58A5.1,5.1,0,0,0,32.17,121H60.75a5,5,0,0,0,3.39-1.32Zm32.16-1.54H67.9a2.06,2.06,0,0,1-2.06-2.05v-3.57a2.07,2.07,0,0,1,2.06-2.06h2v3.58h3v-3.58H77.1v3.57h3v-3.57h4.12v3.57h3v-3.57h4.11v3.57h3v-3.57h2a2.05,2.05,0,0,1,2.06,2v3.58A2.05,2.05,0,0,1,96.48,117.93ZM67.9,110.79a1.52,1.52,0,0,0-1.52,1.52v3.57a1.52,1.52,0,0,0,1.52,1.51H96.48A1.52,1.52,0,0,0,98,115.88v-3.57a1.52,1.52,0,0,0-1.52-1.52H95v3.57H90.85v-3.57h-3v3.57H83.71v-3.57h-3v3.57H76.56v-3.57h-3v3.57H69.41v-3.57Zm-7.15,7.14H32.17a2.06,2.06,0,0,1-2.06-2.05v-3.57a2.07,2.07,0,0,1,2.06-2.06h2v3.58h3v-3.58h4.11v3.57h3v-3.57h4.12v3.57h3v-3.57h4.11v3.57h3v-3.57h2.06a2.06,2.06,0,0,1,2.06,2.06v3.57A2.07,2.07,0,0,1,60.75,117.93Zm-28.58-7.14a1.52,1.52,0,0,0-1.52,1.52v3.57a1.52,1.52,0,0,0,1.52,1.51H60.75a1.52,1.52,0,0,0,1.52-1.51v-3.57a1.52,1.52,0,0,0-1.52-1.52H59.23v3.57H55.12v-3.57h-3v3.57H48v-3.57h-3v3.57H40.83v-3.57h-3v3.57H33.68v-3.57Zm28.58-3.58H32.17a2.06,2.06,0,0,1-2.06-2v-3.58a2.06,2.06,0,0,1,2.06-2h2v3.57h3V99.53h4.11v3.57h3V99.53h4.12v3.57h3V99.53h4.11v3.57h3V99.53h2.06a2.07,2.07,0,0,1,2.06,2v3.58A2.07,2.07,0,0,1,60.75,107.21Zm-28.58-.54H60.75a1.52,1.52,0,0,0,1.52-1.51v-3.58a1.52,1.52,0,0,0-1.52-1.51H59.23v3.57H55.12v-3.57h-3v3.57H48v-3.57h-3v3.57H40.83v-3.57h-3v3.57H33.68v-3.57H32.17a1.52,1.52,0,0,0-1.52,1.51v3.58a1.52,1.52,0,0,0,1.52,1.51ZM60.75,96.5H32.17a2.08,2.08,0,0,1-2.06-2.06V90.86a2.06,2.06,0,0,1,2.06-2h2v3.58h3V88.81h4.11v3.58h3V88.81h4.12v3.58h3V88.81h4.11v3.58h3V88.81h2.06a2.08,2.08,0,0,1,2.06,2.06v3.57A2.08,2.08,0,0,1,60.75,96.5Zm-30.1-5.63v3.57A1.52,1.52,0,0,0,32.17,96H60.75a1.52,1.52,0,0,0,1.52-1.52V90.87a1.52,1.52,0,0,0-1.52-1.52H59.23v3.57H55.12V89.35h-3v3.57H48V89.35h-3v3.57H40.83V89.35h-3v3.57H33.68V89.35H32.17A1.52,1.52,0,0,0,30.65,90.87Zm15.81-5.09A23.56,23.56,0,0,1,23,62.28h0a23.5,23.5,0,1,1,23.49,23.5Zm-23-23.5a23,23,0,1,0,23-23,23,23,0,0,0-23,23ZM93,82.2a34.19,34.19,0,0,1-22.47-8.41l-.16-.14.09-.18A26.29,26.29,0,0,0,60,39.52l-.17-.1,0-.19A33.93,33.93,0,0,1,92.77,13.78H93a34.21,34.21,0,0,1,.11,68.42Zm-22-8.69a33.68,33.68,0,0,0,22,8.15h.11A33.67,33.67,0,0,0,93,14.32h-.25A33.4,33.4,0,0,0,60.46,39.17,26.79,26.79,0,0,1,71.05,73.51Z"/></g><g id="Path_77-2" data-name="Path 77-2"><path class="cls-1" d="M48.25,56.92A1.79,1.79,0,0,1,50,58.71h3.58a5.37,5.37,0,0,0-5.36-5.36V49.78H44.67v3.57H39.31v5.36a5.37,5.37,0,0,0,5.36,5.36h3.58A1.78,1.78,0,0,1,50,65.85v1.79H44.67a1.79,1.79,0,0,1-1.78-1.79H39.31a5.37,5.37,0,0,0,5.36,5.36v3.58h3.58V71.21h5.36V65.85a5.36,5.36,0,0,0-5.36-5.35H44.67a1.8,1.8,0,0,1-1.78-1.79V56.92Z"/></g><g id="Path_78-2" data-name="Path 78-2"><path class="cls-1" d="M46.46,42.63A19.65,19.65,0,1,0,66.11,62.28h0A19.68,19.68,0,0,0,46.46,42.63Zm0,35.73A16.08,16.08,0,1,1,62.54,62.28h0A16.1,16.1,0,0,1,46.46,78.36Z"/></g><g id="Path_87-2" data-name="Path 87-2"><path class="cls-1" d="M98.27,89.08h25v3.57h-25Z"/></g><g id="Path_88-2" data-name="Path 88-2"><path class="cls-1" d="M98.27,96.23h25V99.8h-25Z"/></g><g id="Path_89-2" data-name="Path 89-2"><path class="cls-1" d="M112.56,103.37h3.57v3.57h-3.57Z"/></g><g id="Path_90-2" data-name="Path 90-2"><path class="cls-1" d="M119.71,103.37h3.57v3.57h-3.57Z"/></g><g id="Path_91-2" data-name="Path 91-2"><path class="cls-1" d="M105.41,103.37H109v3.57h-3.58Z"/></g></g><g id="Icon_feather-home" data-name="Icon feather-home"><g id="Path_92-2" data-name="Path 92-2"><path class="cls-1" d="M105.51,66.44H81.2a5.36,5.36,0,0,1-5.35-5.35V42a1.86,1.86,0,0,1,.73-1.48L92.2,28.34a1.91,1.91,0,0,1,2.31,0L110.14,40.5a1.86,1.86,0,0,1,.73,1.48V61.09A5.36,5.36,0,0,1,105.51,66.44ZM79.61,42.9V61.09a1.6,1.6,0,0,0,1.59,1.59h24.31a1.59,1.59,0,0,0,1.59-1.59V42.9L93.36,32.21Z"/></g><g id="Path_93-2" data-name="Path 93-2"><path class="cls-1" d="M98.57,66.44a1.88,1.88,0,0,1-1.88-1.88V49.08H90V64.56a1.88,1.88,0,1,1-3.76,0V47.19a1.88,1.88,0,0,1,1.88-1.88H98.57a1.88,1.88,0,0,1,1.88,1.88V64.56A1.88,1.88,0,0,1,98.57,66.44Z"/></g></g></svg>