<svg id="Layer_1" data-name="Layer 1" xmlns="http://www.w3.org/2000/svg" viewBox="0 0 150 131.71"><defs><style>.cls-1{fill:#001e83;}</style></defs><g id="Group_30" data-name="Group 30"><g id="Group_26" data-name="Group 26"><g id="Group_25" data-name="Group 25"><g id="Rectangle_32" data-name="Rectangle 32"><rect class="cls-1" x="115.55" y="80.48" width="8.18" height="4.55"/></g></g></g><g id="Group_29" data-name="Group 29"><g id="Group_22" data-name="Group 22"><g id="Group_21" data-name="Group 21"><g id="Path_25" data-name="Path 25"><path class="cls-1" d="M90.79,72.9V54.31a6.14,6.14,0,0,0-6.13-6.13H27.46a6.14,6.14,0,0,0-6.13,6.13V72.9a10.24,10.24,0,0,0-8.17,10v32.68a2,2,0,0,0,2,2h8.17a2,2,0,0,0,2.05-2v-6.13H86.7v6.13a2,2,0,0,0,2,2h8.17a2,2,0,0,0,2-2V82.91A10.22,10.22,0,0,0,90.79,72.9ZM25.42,54.31a2,2,0,0,1,2-2h57.2a2,2,0,0,1,2,2V72.69H82.61V64.52a6.13,6.13,0,0,0-6.12-6.13H64.23a6.15,6.15,0,0,0-6.13,6.13v8.17H54V64.52a6.15,6.15,0,0,0-6.13-6.13H35.63a6.15,6.15,0,0,0-6.13,6.13v8.17H25.42ZM78.53,64.52v8.17H62.19V64.52a2,2,0,0,1,2-2H76.48A2,2,0,0,1,78.53,64.52Zm-28.6,0v8.17H33.59V64.52a2,2,0,0,1,2-2H47.89a2,2,0,0,1,2,2Zm44.94,49H90.78v-6.13a2,2,0,0,0-2-2H23.37a2,2,0,0,0-2,2v6.13H17.25V97.21H94.87Zm0-20.43H17.25V82.91a6.12,6.12,0,0,1,6.12-6.13H88.74a6.13,6.13,0,0,1,6.13,6.13Z"/></g></g></g><g id="Group_24" data-name="Group 24"><g id="Group_23" data-name="Group 23"><g id="Path_26" data-name="Path 26"><path class="cls-1" d="M133.68,72.69h-28.6a2.05,2.05,0,0,0-2,2v30.64h4.09V93.12h24.51v12.26h4.09V74.74A2.06,2.06,0,0,0,133.68,72.69Zm-2,16.35H107.13V76.78h24.51Z"/></g></g></g><g id="Group_28" data-name="Group 28"><g id="Group_27" data-name="Group 27"><g id="Path_27" data-name="Path 27"><path class="cls-1" d="M129.49,61.84l-4.08-12.25a2,2,0,0,0-1.94-1.4H115.3a2.05,2.05,0,0,0-1.94,1.4l-4.09,12.26a2,2,0,0,0,1.3,2.58,2,2,0,0,0,.64.11h6.13v6.13h-4.08v4.08h12.25V70.67h-4.08V64.53h6.13a2.06,2.06,0,0,0,1.94-2.69Zm-15.44-1.39,2.72-8.17H122l2.72,8.17Z"/></g></g></g></g><g id="Path_30" data-name="Path 30"><path class="cls-1" d="M148,105.59h-4.81V39.21L75.59,16.33,6.22,39.22v66.37H1.42V37.48A2.4,2.4,0,0,1,3.07,35.2L74.85,11.51a2.4,2.4,0,0,1,1.52,0l70,23.69A2.4,2.4,0,0,1,148,37.48Z"/></g></g></svg>