<svg id="Layer_1" data-name="Layer 1" xmlns="http://www.w3.org/2000/svg" viewBox="0 0 150 131.71"><defs><style>.cls-1{fill:#001e83;}</style></defs><path class="cls-1" d="M148.44,52.63,132,32.65a2,2,0,0,0-2.87-.25,2.06,2.06,0,0,0-.25.26l-16.45,20a2,2,0,0,0,.33,2.86,2.06,2.06,0,0,0,1.25.44h6.19v33.2a2,2,0,0,0,2,2h16.44a2,2,0,0,0,2-2V84.5a2,2,0,0,0-.6-1.43,2,2,0,0,0-1.43-.59h0a2,2,0,0,0-2,2V87.1H124.24V53.9a2,2,0,0,0-2-2h-3.92l12.15-14.75,12.14,14.75h-3.92a2,2,0,0,0-2,2V79.3a2,2,0,0,0,2,2h0a2,2,0,0,0,2-2V55.93h6.21a2,2,0,0,0,1.43-.63,2,2,0,0,0,.12-2.67Z"/><path class="cls-1" d="M138.65,93H122.21a2,2,0,0,0-1.44,3.45,2,2,0,0,0,1.44.6h16.44a2,2,0,0,0,1.43-.6A2,2,0,0,0,138.65,93Z"/><path class="cls-1" d="M138.65,98.84H122.21a2,2,0,1,0,0,4h16.44a2,2,0,0,0,0-4Z"/><path class="cls-1" d="M138.65,104.71H122.21a2,2,0,1,0,0,4.05h16.44a2,2,0,0,0,0-4.05Z"/><g id="Path_76" data-name="Path 76"><path class="cls-1" d="M89.77,74.88V81a2.16,2.16,0,0,1-.64,1.53,2.12,2.12,0,0,1-1.53.64A2.17,2.17,0,0,1,85.43,81V74.78a2.17,2.17,0,0,1,2.17-2.13h0a2.19,2.19,0,0,1,2.13,2.23Z"/></g><g id="Path_77" data-name="Path 77"><path class="cls-1" d="M89.77,92.77v6.08a2.17,2.17,0,0,1-4.34,0V92.67a2.15,2.15,0,0,1,2.17-2.12h0a2.13,2.13,0,0,1,1.52.66A2.19,2.19,0,0,1,89.77,92.77Z"/></g><g id="Path_78" data-name="Path 78"><path class="cls-1" d="M89.77,57v6.08a2.17,2.17,0,0,1-4.34,0V56.89a2.17,2.17,0,0,1,2.17-2.13h0a2.14,2.14,0,0,1,1.52.67A2.17,2.17,0,0,1,89.77,57Z"/></g><g id="Path_79" data-name="Path 79"><path class="cls-1" d="M89.77,39.45v6.08a2.17,2.17,0,0,1-4.34,0V39.36a2.17,2.17,0,0,1,2.17-2.13h0A2.17,2.17,0,0,1,89.77,39.45Z"/></g><g id="Path_80" data-name="Path 80"><path class="cls-1" d="M22.85,74.88V81a2.17,2.17,0,0,1-4.34,0V74.89a2.16,2.16,0,0,1,2.13-2.13h0a2.13,2.13,0,0,1,1.51.61A2.16,2.16,0,0,1,22.85,74.88Z"/></g><g id="Path_81" data-name="Path 81"><path class="cls-1" d="M22.85,92.77v6.08a2.17,2.17,0,0,1-4.34,0V92.78a2.16,2.16,0,0,1,2.13-2.13h0A2.17,2.17,0,0,1,22.85,92.77Z"/></g><g id="Path_82" data-name="Path 82"><path class="cls-1" d="M22.85,57v6.08a2.17,2.17,0,0,1-2.17,2.17h-.11a2.18,2.18,0,0,1-2.06-2.17V57a2.16,2.16,0,0,1,2.13-2.13h0A2.17,2.17,0,0,1,22.85,57Z"/></g><g id="Path_83" data-name="Path 83"><path class="cls-1" d="M22.85,39.45v6.08a2.17,2.17,0,0,1-4.34,0V39.36a2.17,2.17,0,0,1,2.17-2.13h0A2.17,2.17,0,0,1,22.85,39.45Z"/></g><g id="Path_84" data-name="Path 84"><path class="cls-1" d="M44.32,69.15v6.18a2.2,2.2,0,0,1-2.21,2.13A2.17,2.17,0,0,1,40,75.24V69.15a2.17,2.17,0,0,1,4.34,0Z"/></g><g id="Path_85" data-name="Path 85"><path class="cls-1" d="M44.32,87.05v6.07a2.17,2.17,0,0,1-4.34,0V87.05a2.17,2.17,0,0,1,4.34,0Z"/></g><g id="Path_86" data-name="Path 86"><path class="cls-1" d="M44.32,51.26v6.07a2.16,2.16,0,0,1-2.13,2.13,2.12,2.12,0,0,1-1.54-.6A2.17,2.17,0,0,1,40,57.35V51.26a2.17,2.17,0,0,1,4.34,0Z"/></g><g id="Path_87" data-name="Path 87"><path class="cls-1" d="M44.32,33.73V39.8a2.17,2.17,0,0,1-4.34,0V33.73a2.17,2.17,0,0,1,4.34,0Z"/></g><g id="Path_88" data-name="Path 88"><path class="cls-1" d="M56.13,69.15v6.18a2.19,2.19,0,0,1-2.21,2.13,2.17,2.17,0,0,1-2.13-2.22V69.15a2.17,2.17,0,0,1,4.34,0Z"/></g><g id="Path_89" data-name="Path 89"><path class="cls-1" d="M56.13,51.26v6.08A2.16,2.16,0,0,1,54,59.47a2.23,2.23,0,0,1-1.55-.61,2.2,2.2,0,0,1-.66-1.51V51.26A2.17,2.17,0,0,1,54,49.09a2.19,2.19,0,0,1,2.17,2.17Z"/></g><g id="Path_90" data-name="Path 90"><path class="cls-1" d="M56.13,33.73V39.8a2.17,2.17,0,0,1-4.34,0V33.73a2.17,2.17,0,0,1,4.34,0Z"/></g><g id="Path_91" data-name="Path 91"><path class="cls-1" d="M67.94,69.15v6.09a2.17,2.17,0,0,1-4.34,0V69.17A2.16,2.16,0,0,1,65.73,67h0A2.16,2.16,0,0,1,67.94,69.15Z"/></g><g id="Path_92" data-name="Path 92"><path class="cls-1" d="M67.94,87v6.09a2.17,2.17,0,0,1-4.34,0V87a2.17,2.17,0,0,1,2.17-2.13h0A2.17,2.17,0,0,1,67.94,87Z"/></g><g id="Path_93" data-name="Path 93"><path class="cls-1" d="M67.94,51.26v6.08a2.17,2.17,0,0,1-4.34,0V51.27a2.17,2.17,0,0,1,2.13-2.13h0A2.17,2.17,0,0,1,67.94,51.26Z"/></g><g id="Path_94" data-name="Path 94"><path class="cls-1" d="M67.94,33.73v6.08a2.17,2.17,0,0,1-4.34,0V33.63a2.17,2.17,0,0,1,2.17-2.13h0a2.14,2.14,0,0,1,1.52.67A2.17,2.17,0,0,1,67.94,33.73Z"/></g><path class="cls-1" d="M100.5,105.08V27.64a2.05,2.05,0,0,0-2-2.16H79.75V21.92a2.08,2.08,0,0,0-2-2.17H30.8A2.26,2.26,0,0,0,28.53,22v3.52H9.35a2.3,2.3,0,0,0-2.29,2.2v77.41H1.63v4.63H106.77v-4.63Zm-72,0H11.4V29.81H28.53Zm46.88,0H55.77V92.41A2.16,2.16,0,0,0,53.6,90.3h0a2.16,2.16,0,0,0-2.13,2.13v12.65H32.87v-81H75.41Zm20.75,0H79.75V29.81H96.17Z"/></svg>