<svg xmlns="http://www.w3.org/2000/svg" viewBox="0 0 280.74 421.41"><defs><style>.cls-1{fill:#fff;}</style></defs><g id="Layer_2" data-name="Layer 2"><g id="Layer_2-2" data-name="Layer 2"><path class="cls-1" d="M275.93,62.11c0-.17,0-.34-.05-.5a3.11,3.11,0,0,0,0-.32,4.39,4.39,0,0,0-.13-.52,2.86,2.86,0,0,0-.07-.28c-.07-.22-.17-.44-.26-.65,0,0,0-.07-.05-.1a4.86,4.86,0,0,0-.4-.7,1.84,1.84,0,0,0-.17-.22,4.46,4.46,0,0,0-.33-.43c-.07-.08-.16-.15-.23-.24l-.35-.33a3.15,3.15,0,0,0-.29-.22l-.29-.23-.08,0a3.3,3.3,0,0,0-.32-.18,4.1,4.1,0,0,0-.41-.22l-.1,0L144.27.5a6.08,6.08,0,0,0-4.84,0L11.34,56.88l-.1,0c-.14.06-.27.14-.41.21a3.37,3.37,0,0,0-.32.19l-.08,0-.29.23-.3.22-.34.33c-.08.09-.16.16-.24.24s-.22.28-.33.43-.11.14-.16.22a6.1,6.1,0,0,0-.41.7.42.42,0,0,1,0,.1,5.18,5.18,0,0,0-.26.65,2.86,2.86,0,0,0-.07.28,4.39,4.39,0,0,0-.13.52,3.11,3.11,0,0,0,0,.32,4,4,0,0,0-.05.5s0,.06,0,.09,0,.18,0,.27,0,.23,0,.35l10.05,132.7a6,6,0,0,0,2.59,4.5l118.05,80.79.21.12.38.23.12.06.25.11c.18.08.35.15.53.21l.28.08a3.65,3.65,0,0,0,.55.13l.25.05a7.54,7.54,0,0,0,.82.06,7.36,7.36,0,0,0,.81-.06l.25-.05a3.5,3.5,0,0,0,.56-.13l.28-.08a4.71,4.71,0,0,0,.52-.21l.26-.11.12-.06c.13-.07.25-.15.37-.23l.22-.12,118-80.79a6,6,0,0,0,2.6-4.5l10-132.7c0-.12,0-.23,0-.35s0-.18,0-.27S275.93,62.14,275.93,62.11Zm-196,148.68c-1.47,0-2.66-2.38-2.66-5.31s1.19-5.3,2.66-5.3,2.66,2.38,2.66,5.3S81.34,210.79,79.88,210.79Zm56,53.69L88.36,232V182.43L58,166.52l.71,45.14L29.57,191.74l-9-119.18L61.1,93.24l4.07,2.08,2.74,50.12,8.65,3.9,1.09-47.66,58.2,29.67Zm6-143.54L27.75,62.77l114.1-50.22L256,62.77Zm114.79,37.65-68.19,37.73v10.05l67.83-43-1.14,15L188.45,215.3v10l66.32-42.07-.64,8.47L147.85,264.48V203.11L258,140.66Zm2.17-28.74L237.48,142l-3.92-29.15L228,116.15,225,149l-25.79,14.62L195.11,133l-5.62,3.35-3.08,34.54-38.56,21.86V131.35L222.6,93.24l40.55-20.68Z"/><polygon class="cls-1" points="32.45 333.27 11.25 333.27 11.25 309.86 0 309.86 0 366.1 11.25 366.1 11.25 343.38 32.45 343.38 32.45 366.1 43.77 366.1 43.77 309.86 32.45 309.86 32.45 333.27"/><path class="cls-1" d="M120.08,356q2.51-6.15,2.51-17.93t-2.51-18q-2.51-6.19-7.41-8.47t-13.19-2.28q-8.2,0-13.15,2.28t-7.48,8.47q-2.55,6.19-2.55,18T78.81,356q2.5,6.17,7.45,8.36t13.22,2.21q8.28,0,13.19-2.21T120.08,356Zm-9.81-6.27c-.71,2.61-1.88,4.38-3.53,5.32s-4.07,1.41-7.26,1.41S93.79,356,92.15,355s-2.83-2.7-3.53-5.28a47,47,0,0,1-1.07-11.7q0-8,1.14-11.94t3.61-5.32a15.16,15.16,0,0,1,7.18-1.36q4.78,0,7.26,1.36c1.65.92,2.82,2.68,3.53,5.29a49.29,49.29,0,0,1,1.07,12A47.58,47.58,0,0,1,110.27,349.72Z"/><polygon class="cls-1" points="212.57 366.1 205.96 309.86 195.24 309.86 182.4 352.95 169.48 309.86 158.69 309.86 152.15 366.1 163.02 366.1 167.2 329.77 177 366.1 187.57 366.1 197.37 329.31 201.7 366.1 212.57 366.1"/><path class="cls-1" d="M259.77,320.27h21v-9.42q-12.69-1-24.32-1a14.12,14.12,0,0,0-9.08,3q-3.76,3-3.76,9.84v31.39q0,7.53,4.1,10a18.46,18.46,0,0,0,9.58,2.43,212.17,212.17,0,0,0,23.48-1.14v-9.42h-21.2c-3.14,0-4.71-1.68-4.71-5v-7.75l22.27-.61v-8.89L254.83,333v-8.13C254.83,321.82,256.47,320.27,259.77,320.27Z"/><path class="cls-1" d="M17.9,404.25a5.56,5.56,0,0,0,3.33-2.4,8.34,8.34,0,0,0,1.25-4.73q0-8.44-9-8.45H1.1v32.48H14q4.76,0,7.13-2.07c1.58-1.38,2.38-3.68,2.38-6.91a8.1,8.1,0,0,0-1.65-5.39A7.4,7.4,0,0,0,17.9,404.25ZM6.51,393.56h7q3.83,0,3.83,4.31a5.06,5.06,0,0,1-1,3.3,3.31,3.31,0,0,1-2.69,1.23H6.51ZM17.2,415.1a4.5,4.5,0,0,1-3.34,1.16H6.51v-9.63h7.35a4.42,4.42,0,0,1,3.23,1.23,4.51,4.51,0,0,1,1.25,3.39A5.39,5.39,0,0,1,17.2,415.1Z"/><path class="cls-1" d="M70.18,410.81q0,3.07-1.76,4.37a8.76,8.76,0,0,1-5.24,1.3,8.76,8.76,0,0,1-5.24-1.3q-1.75-1.29-1.76-4.37V388.67H50.77v22.14q0,5.94,3.19,8.25t9.22,2.31q6,0,9.22-2.31c2.12-1.54,3.19-4.29,3.19-8.25V388.67H70.18Z"/><polygon class="cls-1" points="101.77 393.56 111.09 393.56 111.09 421.15 116.55 421.15 116.55 393.56 125.83 393.56 125.83 388.67 101.77 388.67 101.77 393.56"/><polygon class="cls-1" points="150.56 393.56 159.89 393.56 159.89 421.15 165.35 421.15 165.35 393.56 174.63 393.56 174.63 388.67 150.56 388.67 150.56 393.56"/><path class="cls-1" d="M220.76,389.66a18.12,18.12,0,0,0-7.5-1.29,17.8,17.8,0,0,0-7.43,1.29,8.62,8.62,0,0,0-4.21,4.91q-1.43,3.6-1.43,10.43c0,4.54.47,8,1.41,10.36a8.34,8.34,0,0,0,4.18,4.8,23.07,23.07,0,0,0,15,0,8.37,8.37,0,0,0,4.18-4.8c1-2.36,1.43-5.82,1.43-10.36s-.47-8.06-1.4-10.45A8.47,8.47,0,0,0,220.76,389.66Zm-.55,22.66a5.17,5.17,0,0,1-2.31,3.33,12.73,12.73,0,0,1-9.3,0,5.15,5.15,0,0,1-2.27-3.3,29.53,29.53,0,0,1-.68-7.35,28.1,28.1,0,0,1,.75-7.55,5.26,5.26,0,0,1,2.33-3.34,9.72,9.72,0,0,1,4.53-.86,10.07,10.07,0,0,1,4.62.84,5.09,5.09,0,0,1,2.31,3.34,28.92,28.92,0,0,1,.73,7.57A28.22,28.22,0,0,1,220.21,412.32Z"/><polygon class="cls-1" points="273.98 411.86 259.2 388.67 254.84 388.67 254.84 421.15 260.3 421.15 260.3 397.96 275.08 421.15 279.44 421.15 279.44 388.67 273.98 388.67 273.98 411.86"/><polygon class="cls-1" points="184.83 62.67 142.12 84.25 99.44 62.67 141.93 42.72 184.83 62.67"/></g></g></svg>